# xmcd
#
# Track frame offsets:
#	150
#	9365
#	19723
#	31073
#	41705
#	53988
#	66908
#	78605
#	91498
#	105945
#	123953
#	134815
#	147600
#	158248
#
# Disc length: 2296 seconds
#
# Revision: 0
# Processed by: cddbd v1.4PL0 Copyright (c) Steve Scherf et al.
# Submitted via: dBpowerAMP V4.0
#
DISCID=bc08f60e
DTITLE=Frankie Lane - Frankie Lane Gold
DYEAR=1900
DGENRE=Country
TTITLE0=Rawhilde
TTITLE1=I believe
TTITLE2=Answer me
TTITLE3=A woman in love
TTITLE4=High noon
TTITLE5=Rain,rain,rain
TTITLE6=Strange lady in town
TTITLE7=Moonlight gambler
TTITLE8=There must be a reason
TTITLE9=You gave me a mountain
TTITLE10=Hummingbird
TTITLE11=Granada
TTITLE12=Sixteen tons
TTITLE13=Don't fence me in
EXTD=
EXTT0=
EXTT1=
EXTT2=
EXTT3=
EXTT4=
EXTT5=
EXTT6=
EXTT7=
EXTT8=
EXTT9=
EXTT10=
EXTT11=
EXTT12=
EXTT13=
PLAYORDER=
